<svg width="398" height="398" viewBox="0 0 398 398" fill="none" xmlns="http://www.w3.org/2000/svg">
<path d="M168.1 157.136C168.434 160.977 168.852 167.24 169.353 175.924C170.021 184.442 170.522 194.295 170.856 205.485C171.19 216.674 171.274 228.198 171.107 240.055C171.107 251.746 170.689 262.852 169.854 273.374C169.186 283.895 167.933 292.663 166.096 299.677C163.09 311.201 154.74 320.052 141.045 326.232C127.35 332.411 110.149 335.501 89.4396 335.501C75.5779 335.501 63.8038 332.912 54.1174 327.735C44.4309 322.557 36.9155 315.46 31.5713 306.441C26.394 297.256 23.4714 286.734 22.8033 274.877C22.4693 269.031 22.2188 261.6 22.0518 252.581C21.8848 243.396 21.7178 233.542 21.5508 223.021C21.5508 212.332 21.5508 201.811 21.5508 191.456C21.5508 181.102 21.5508 171.666 21.5508 163.148C21.7178 154.464 21.8013 147.533 21.8013 142.356C21.8013 137.178 21.8013 134.59 21.8013 134.59C23.6384 134.256 26.8115 134.172 31.3208 134.339C35.997 134.506 40.8402 135.258 45.8505 136.594C51.5287 137.93 56.706 140.185 61.3822 143.358C66.2255 146.531 68.9811 151.124 69.6491 157.136C70.1501 162.146 70.1501 169.662 69.6491 179.682C69.3151 189.536 68.9811 200.892 68.6471 213.752C68.4801 226.444 68.8141 239.638 69.6491 253.333C69.8161 256.172 69.8996 259.428 69.8996 263.103C69.8996 266.777 70.4007 270.367 71.4027 273.875C72.5718 277.382 74.8264 280.304 78.1665 282.643C81.6737 284.981 87.018 286.15 94.1993 286.15C101.381 286.15 106.808 285.148 110.483 283.144C114.324 281.139 117.079 278.384 118.75 274.877C120.42 271.37 121.422 267.278 121.756 262.602C122.257 257.925 122.674 252.915 123.008 247.571C123.342 244.064 123.426 238.886 123.259 232.039C123.259 225.192 123.175 217.509 123.008 208.992C122.841 200.475 122.591 191.874 122.257 183.189C121.923 174.505 121.589 166.488 121.255 159.14C120.921 151.792 120.67 145.863 120.503 141.354C120.336 136.844 120.253 134.59 120.253 134.59C122.09 134.256 125.263 134.172 129.772 134.339C134.448 134.506 139.375 135.258 144.552 136.594C150.231 137.93 152.105 137.929 156.781 141.269C161.457 144.442 167.432 151.291 168.1 157.136Z" fill="black"/>
<path d="M376.988 62.0732L374.816 76.0713C368.713 115.352 350.05 145.351 325.749 153.933L317.382 156.89C310.35 193.195 292.409 220.62 269.397 228.742L257.287 233.015C250.255 269.309 232.314 296.744 209.302 304.866L209.303 304.867L133.264 331.716L133.154 331.899H132.574L132.383 330.776L131.729 330.387L144.44 309.095C154.083 292.942 161.644 272.008 165.712 250.149L165.728 250.056L165.731 250.03C169 232.819 170.1 215.463 169.02 198.446L169.019 198.435L168.98 197.701C168.811 194.652 168.516 191.275 168.058 187.367L167.906 186.134C166.352 173.83 163.67 162.207 159.925 151.55L159.547 150.487L155.669 139.731L155.328 138.784L156.277 138.449L375.668 60.9766L377.245 60.4199L376.988 62.0732ZM176.809 261.424C173.943 274.961 169.915 288.097 164.98 300.095L206.407 285.469C222.289 279.853 235.498 262.452 242.473 238.234L176.809 261.424ZM182.074 204.651C182.395 216.297 181.845 228.024 180.427 239.727L265.836 209.568V209.558L266.503 209.322C282.384 203.717 295.594 186.316 302.568 162.099L182.074 204.651ZM174.41 152.441C177.199 162.313 179.261 172.763 180.565 183.646L180.572 183.704V183.754C180.612 184.082 180.646 184.407 180.683 184.729L210.891 174.064L319.323 135.776L319.324 135.775L321.691 134.941L321.686 134.932L322.841 134.523C338.747 128.908 351.963 111.497 358.92 87.2891L174.41 152.441Z" fill="black" stroke="white" stroke-width="2"/>
</svg>
